<svg xmlns="http://www.w3.org/2000/svg" xmlns:xlink="http://www.w3.org/1999/xlink" width="1240" height="884.98"><rect width="1240" height="884.98" rx="5" ry="5" class="a"/><svg y="0%" x="0%"><circle cx="20" cy="20" r="6" fill="#ff5f58"/><circle cx="40" cy="20" r="6" fill="#ffbd2e"/><circle cx="60" cy="20" r="6" fill="#18c132"/></svg><svg height="824.98" viewBox="0 0 120 82.498" width="1200" x="15" xmlns="http://www.w3.org/2000/svg" xmlns:xlink="http://www.w3.org/1999/xlink" y="50"><style>@keyframes m{0%{transform:translateX(-120px)}3.9%{transform:translateX(-240px)}4.3%{transform:translateX(-360px)}4.7%{transform:translateX(-480px)}5.1%{transform:translateX(-600px)}5.5%{transform:translateX(-720px)}5.9%{transform:translateX(-840px)}6.3%{transform:translateX(-960px)}6.7%{transform:translateX(-1080px)}7.1%{transform:translateX(-1200px)}7.4%{transform:translateX(-1320px)}7.8%{transform:translateX(-1440px)}8.2%{transform:translateX(-1560px)}8.6%{transform:translateX(-1680px)}9%{transform:translateX(-1800px)}9.4%{transform:translateX(-1920px)}9.8%{transform:translateX(-2040px)}10.2%{transform:translateX(-2160px)}10.6%{transform:translateX(-2280px)}11%{transform:translateX(-2400px)}11.4%{transform:translateX(-2520px)}11.8%{transform:translateX(-2640px)}12.1%{transform:translateX(-2760px)}12.5%{transform:translateX(-2880px)}12.9%{transform:translateX(-3000px)}13.3%{transform:translateX(-3120px)}13.7%{transform:translateX(-3240px)}14.1%{transform:translateX(-3360px)}14.5%{transform:translateX(-3480px)}14.9%{transform:translateX(-3600px)}15.3%{transform:translateX(-3720px)}15.7%{transform:translateX(-3840px)}19%{transform:translateX(-3960px)}74.5%{transform:translateX(-4080px)}74.9%{transform:translateX(-4200px)}75.4%{transform:translateX(-4440px)}85.7%{transform:translateX(-4560px)}90.3%{transform:translateX(-4680px)}to{transform:translateX(-4800px)}}.a{fill:#282d35}.f{fill:#b9c0cb}.f,.g,.h,.i{white-space:pre}.g{fill:#b9c0cb;font-weight:700}.h,.i{fill:#dbab79}.i{fill:#d290e4}</style><g font-family="Monaco,Consolas,Menlo,'Bitstream Vera Sans Mono','Powerline Symbols',monospace" font-size="1.67"><defs><symbol id="1"><text y="1.67" class="f">$</text></symbol><symbol id="2"><text y="1.67" class="f">$</text><text x="2.004" y="1.67" class="f">npx</text></symbol><symbol id="3"><text y="1.67" class="f">$</text><text x="2.004" y="1.67" class="f">npx</text><text x="6.012" y="1.67" class="f">tsx</text></symbol><symbol id="4"><text y="1.67" class="f">$</text><text x="2.004" y="1.67" class="f">npx</text><text x="6.012" y="1.67" class="f">tsx</text><text x="10.02" y="1.67" class="f">scripts/demo-outline.ts</text></symbol><symbol id="5"><text x="117.234" y="1.67" class="f">`ex</text></symbol><symbol id="6"><text x="118.236" y="1.67" class="f">..</text></symbol><symbol id="7"><text y="1.67" class="f">.</text><text x="2.004" y="1.67" class="f">(truncated)</text></symbol><symbol id="8"><text x="13.026" y="1.67" class="f">#</text><text x="15.03" y="1.67" class="f">Built</text><text x="21.042" y="1.67" class="f">in</text><text x="24.048" y="1.67" class="f">43ms.</text></symbol><symbol id="9"><text x="29.058" y="1.67" class="f">#</text><text x="31.062" y="1.67" class="f">Target:</text><text x="39.078" y="1.67" class="g">colinhacks/zod</text><text x="54.108" y="1.67" class="f">:</text><text x="56.112" y="1.67" class="f">packages/zod/src/v4/core/errors.ts</text></symbol><symbol id="10"><text x="90.18" y="1.67" class="g">$</text><text x="92.184" y="1.67" class="g">nreki_navigate</text><text x="107.214" y="1.67" class="g">action:&quot;outli</text></symbol><symbol id="11"><text y="1.67" class="g">ne&quot;</text><text x="4.008" y="1.67" class="g">path:&quot;v4/core/errors.ts&quot;</text></symbol><symbol id="12"><text x="28.056" y="1.67" class="f">##</text><text x="31.062" y="1.67" class="f">Outline:</text><text x="40.08" y="1.67" class="f">v4/core/errors.ts</text></symbol><symbol id="13"><text x="57.114" y="1.67" class="f">43</text><text x="60.12" y="1.67" class="f">symbol(s)</text></symbol><symbol id="14"><text x="69.138" y="1.67" class="f">-</text><text x="71.142" y="1.67" class="f">**interface**</text><text x="85.17" y="1.67" class="f">`$ZodIssueCustom`</text><text x="103.206" y="1.67" class="f">[named]</text><text x="111.222" y="1.67" class="f">[LOW]</text><text x="117.234" y="1.67" class="h">⚠️</text></symbol><symbol id="15"><text y="1.67" class="h">[any</text><text x="5.01" y="1.67" class="h">escape]</text><text x="13.026" y="1.67" class="f">-</text><text x="15.03" y="1.67" class="f">L128-L132</text></symbol><symbol id="16"><text x="26.052" y="1.67" class="f">`interface</text><text x="37.074" y="1.67" class="f">$ZodIssueCustom</text><text x="53.106" y="1.67" class="f">extends</text><text x="61.122" y="1.67" class="f">$ZodIssueBase`</text></symbol><symbol id="17"><text x="75.15" y="1.67" class="f">-</text><text x="77.154" y="1.67" class="f">**function**</text><text x="90.18" y="1.67" class="f">`flattenError`</text><text x="105.21" y="1.67" class="f">[named]</text><text x="113.226" y="1.67" class="f">[LOW]</text><text x="119.238" y="1.67" class="h">⚠</text></symbol><symbol id="18"><text y="1.67" class="h">️</text><text x="2.004" y="1.67" class="h">[any</text><text x="7.014" y="1.67" class="h">escape]</text><text x="15.03" y="1.67" class="f">-</text><text x="17.034" y="1.67" class="f">L264-L276</text></symbol><symbol id="19"><text x="28.056" y="1.67" class="f">`export</text><text x="36.072" y="1.67" class="f">function</text><text x="45.09" y="1.67" class="f">flattenError&lt;T,</text><text x="61.122" y="1.67" class="f">U&gt;(error:</text><text x="71.142" y="1.67" class="f">$ZodError&lt;T&gt;,</text><text x="85.17" y="1.67" class="f">mapper</text><text x="92.184" y="1.67" class="f">=</text><text x="94.188" y="1.67" class="f">(issue:</text><text x="102.204" y="1.67" class="f">$ZodIssue)</text><text x="113.226" y="1.67" class="f">=&gt;</text><text x="116.232" y="1.67" class="f">issu</text></symbol><symbol id="20"><text y="1.67" class="f">e.message</text><text x="10.02" y="1.67" class="f">as</text><text x="13.026" y="1.67" class="f">U)</text><text x="16.032" y="1.67" class="f">{`</text></symbol><symbol id="21"><text x="18.036" y="1.67" class="f">-</text><text x="20.04" y="1.67" class="f">**type**</text><text x="29.058" y="1.67" class="f">`_ZodFormattedError`</text><text x="50.1" y="1.67" class="f">[MED</text><text x="55.11" y="1.67" class="f">—</text><text x="57.114" y="1.67" class="f">type</text><text x="62.124" y="1.67" class="f">gap]</text><text x="67.134" y="1.67" class="h">⚠️</text><text x="70.14" y="1.67" class="h">[any</text><text x="75.15" y="1.67" class="h">escape]</text><text x="83.166" y="1.67" class="f">-</text><text x="85.17" y="1.67" class="f">L278-L284</text></symbol><symbol id="22"><text x="96.192" y="1.67" class="f">`type</text><text x="102.204" y="1.67" class="f">_ZodFormattedError</text></symbol><symbol id="23"><text y="1.67" class="f">&lt;T,</text><text x="4.008" y="1.67" class="f">U</text><text x="6.012" y="1.67" class="f">=</text><text x="8.016" y="1.67" class="f">string&gt;</text><text x="16.032" y="1.67" class="f">=</text><text x="18.036" y="1.67" class="f">T</text><text x="20.04" y="1.67" class="f">extends</text><text x="28.056" y="1.67" class="f">[any,</text><text x="34.068" y="1.67" class="f">...any[]]</text></symbol><symbol id="24"><text x="2.004" y="1.67" class="f">?`</text></symbol><symbol id="25"><text x="4.008" y="1.67" class="f">-</text><text x="6.012" y="1.67" class="f">**function**</text><text x="19.038" y="1.67" class="f">`formatError`</text><text x="33.066" y="1.67" class="f">[named]</text><text x="41.082" y="1.67" class="i">[HIGH</text><text x="47.094" y="1.67" class="i">—</text><text x="49.098" y="1.67" class="i">12</text><text x="52.104" y="1.67" class="i">branches,</text><text x="62.124" y="1.67" class="i">ext</text><text x="66.132" y="1.67" class="i">deps,</text><text x="72.144" y="1.67" class="i">state</text><text x="78.156" y="1.67" class="i">mutation]</text><text x="88.176" y="1.67" class="h">⚠️</text><text x="91.182" y="1.67" class="h">[any</text><text x="96.192" y="1.67" class="h">escape]</text><text x="104.208" y="1.67" class="f">-</text><text x="106.212" y="1.67" class="f">L292-L326</text></symbol><symbol id="26"><text y="1.67" class="f">port</text><text x="5.01" y="1.67" class="f">function</text><text x="14.028" y="1.67" class="f">formatError&lt;T,</text><text x="29.058" y="1.67" class="f">U&gt;(error:</text><text x="39.078" y="1.67" class="f">$ZodError&lt;T&gt;,</text><text x="53.106" y="1.67" class="f">mapper</text><text x="60.12" y="1.67" class="f">=</text><text x="62.124" y="1.67" class="f">(issue:</text><text x="70.14" y="1.67" class="f">$ZodIssue)</text><text x="81.162" y="1.67" class="f">=&gt;</text><text x="84.168" y="1.67" class="f">issue.message</text><text x="98.196" y="1.67" class="f">as</text><text x="101.202" y="1.67" class="f">U)</text><text x="104.208" y="1.67" class="f">{`</text></symbol><symbol id="27"><text x="106.212" y="1.67" class="f">-</text><text x="108.216" y="1.67" class="f">**function**</text></symbol><symbol id="28"><text x="1.002" y="1.67" class="f">`processError`</text><text x="16.032" y="1.67" class="i">[HIGH</text><text x="22.044" y="1.67" class="i">—</text><text x="24.048" y="1.67" class="i">12</text><text x="27.054" y="1.67" class="i">branches,</text><text x="37.074" y="1.67" class="i">state</text><text x="43.086" y="1.67" class="i">mutation,</text><text x="53.106" y="1.67" class="i">biz</text><text x="57.114" y="1.67" class="i">logic]</text><text x="64.128" y="1.67" class="h">⚠️</text><text x="67.134" y="1.67" class="h">[any</text><text x="72.144" y="1.67" class="h">escape]</text><text x="80.16" y="1.67" class="f">-</text><text x="82.164" y="1.67" class="f">L294-L323</text></symbol><symbol id="29"><text x="93.186" y="1.67" class="f">`const</text><text x="100.2" y="1.67" class="f">processError</text><text x="113.226" y="1.67" class="f">=</text><text x="115.23" y="1.67" class="f">(erro</text></symbol><symbol id="30"><text y="1.67" class="f">r:</text><text x="3.006" y="1.67" class="f">{</text><text x="5.01" y="1.67" class="f">issues:</text><text x="13.026" y="1.67" class="f">$ZodIssue[]</text><text x="25.05" y="1.67" class="f">})</text><text x="28.056" y="1.67" class="f">=&gt;</text><text x="31.062" y="1.67" class="f">{`</text></symbol><symbol id="31"><text x="33.066" y="1.67" class="f">-</text><text x="35.07" y="1.67" class="f">**function**</text><text x="48.096" y="1.67" class="f">`treeifyError`</text><text x="63.126" y="1.67" class="f">[named]</text><text x="71.142" y="1.67" class="i">[HIGH</text><text x="77.154" y="1.67" class="i">—</text><text x="79.158" y="1.67" class="i">12</text><text x="82.164" y="1.67" class="i">branches,</text><text x="92.184" y="1.67" class="i">ext</text><text x="96.192" y="1.67" class="i">deps,</text><text x="102.204" y="1.67" class="i">state</text><text x="108.216" y="1.67" class="i">mutation]</text><text x="118.236" y="1.67" class="h">⚠️</text></symbol><symbol id="32"><text x="1.002" y="1.67" class="h">[any</text><text x="6.012" y="1.67" class="h">escape]</text><text x="14.028" y="1.67" class="f">-</text><text x="16.032" y="1.67" class="f">L340-L385</text></symbol><symbol id="33"><text x="27.054" y="1.67" class="f">`export</text><text x="35.07" y="1.67" class="f">function</text><text x="44.088" y="1.67" class="f">treeifyError&lt;T,</text><text x="60.12" y="1.67" class="f">U&gt;(error:</text><text x="70.14" y="1.67" class="f">$ZodError&lt;T&gt;,</text><text x="84.168" y="1.67" class="f">mapper</text><text x="91.182" y="1.67" class="f">=</text><text x="93.186" y="1.67" class="f">(issue:</text><text x="101.202" y="1.67" class="f">$ZodIssue)</text><text x="112.224" y="1.67" class="f">=&gt;</text><text x="115.23" y="1.67" class="f">issue</text></symbol><symbol id="34"><text y="1.67" class="f">.message</text><text x="9.018" y="1.67" class="f">as</text><text x="12.024" y="1.67" class="f">U)</text><text x="15.03" y="1.67" class="f">{`</text></symbol><symbol id="35"><text x="17.034" y="1.67" class="f">-</text><text x="19.038" y="1.67" class="f">**function**</text><text x="32.064" y="1.67" class="f">`processError`</text><text x="47.094" y="1.67" class="i">[HIGH</text><text x="53.106" y="1.67" class="i">—</text><text x="55.11" y="1.67" class="i">12</text><text x="58.116" y="1.67" class="i">branches,</text><text x="68.136" y="1.67" class="i">ext</text><text x="72.144" y="1.67" class="i">deps,</text><text x="78.156" y="1.67" class="i">state</text><text x="84.168" y="1.67" class="i">mutation]</text><text x="94.188" y="1.67" class="h">⚠️</text><text x="97.194" y="1.67" class="h">[any</text><text x="102.204" y="1.67" class="h">escape]</text><text x="110.22" y="1.67" class="f">-</text><text x="112.224" y="1.67" class="f">L342-L38</text></symbol><symbol id="36"><text y="1.67" class="f">2</text></symbol><symbol id="37"><text x="3.006" y="1.67" class="f">`const</text><text x="10.02" y="1.67" class="f">processError</text><text x="23.046" y="1.67" class="f">=</text><text x="25.05" y="1.67" class="f">(error:</text><text x="33.066" y="1.67" class="f">{</text><text x="35.07" y="1.67" class="f">issues:</text><text x="43.086" y="1.67" class="f">$ZodIssue[]</text><text x="55.11" y="1.67" class="f">},</text><text x="58.116" y="1.67" class="f">path:</text><text x="64.128" y="1.67" class="f">PropertyKey[]</text><text x="78.156" y="1.67" class="f">=</text><text x="80.16" y="1.67" class="f">[])</text><text x="84.168" y="1.67" class="f">=&gt;</text><text x="87.174" y="1.67" class="f">{`</text></symbol><symbol id="38"><text x="89.178" y="1.67" class="f">...</text><text x="93.186" y="1.67" class="f">(truncated)</text></symbol><symbol id="39"><text x="104.208" y="1.67" class="f">#</text><text x="106.212" y="1.67" class="f">Built</text><text x="112.224" y="1.67" class="f">in</text><text x="115.23" y="1.67" class="f">48ms.</text></symbol><symbol id="40"><text y="1.67" class="f">#</text><text x="2.004" y="1.67" class="f">────────────────────────────────────────────────────</text></symbol><symbol id="41"><text x="54.108" y="1.67" class="f">#</text><text x="56.112" y="1.67" class="f">Scene</text><text x="62.124" y="1.67" class="f">3:</text><text x="65.13" y="1.67" class="g">Spectral</text><text x="74.148" y="1.67" class="g">Topology</text><text x="83.166" y="1.67" class="f">on</text><text x="86.172" y="1.67" class="f">the</text><text x="90.18" y="1.67" class="f">full</text><text x="95.19" y="1.67" class="f">zod</text><text x="99.198" y="1.67" class="f">codebase</text></symbol><symbol id="42"><text x="107.214" y="1.67" class="g">$</text><text x="109.218" y="1.67" class="g">npx</text><text x="113.226" y="1.67" class="g">tsx</text><text x="117.234" y="1.67" class="g">tes</text></symbol><symbol id="43"><text y="1.67" class="g">ts/benchmark-spectral-external.ts</text><text x="34.068" y="1.67" class="g">~/.nreki-demo-cache/zod</text></symbol><symbol id="44"><text x="57.114" y="1.67" class="f">Project:</text><text x="66.132" y="1.67" class="f">zod</text></symbol><symbol id="45"><text x="69.138" y="1.67" class="f">Source</text><text x="76.152" y="1.67" class="f">files:</text><text x="83.166" y="1.67" class="f">116</text></symbol><symbol id="46"><text x="86.172" y="1.67" class="f">---</text><text x="90.18" y="1.67" class="f">Results</text><text x="98.196" y="1.67" class="f">---</text></symbol><symbol id="47"><text x="101.202" y="1.67" class="f">Nodes:</text><text x="108.216" y="1.67" class="f">2194</text><text x="114.228" y="1.67" class="f">|</text><text x="117.234" y="1.67" class="f">Edg</text></symbol><symbol id="48"><text y="1.67" class="f">es:</text><text x="4.008" y="1.67" class="f">6223</text><text x="10.02" y="1.67" class="f">|</text><text x="13.026" y="1.67" class="f">Sparse</text><text x="20.04" y="1.67" class="f">edges:</text><text x="27.054" y="1.67" class="f">5887</text></symbol><symbol id="49"><text x="31.062" y="1.67" class="f">Fiedler</text><text x="39.078" y="1.67" class="f">(λ₂):</text><text x="45.09" y="1.67" class="f">0.000000</text><text x="55.11" y="1.67" class="f">|</text><text x="58.116" y="1.67" class="f">Volume:</text><text x="66.132" y="1.67" class="f">4052</text></symbol><symbol id="50"><text x="70.14" y="1.67" class="f">Extract:</text><text x="79.158" y="1.67" class="f">389.2ms</text><text x="88.176" y="1.67" class="f">|</text><text x="91.182" y="1.67" class="g">Fiedler</text><text x="99.198" y="1.67" class="g">(sparse):</text><text x="109.218" y="1.67" style="white-space:pre" fill="#dbab79" font-weight="700">67.3ms</text></symbol><symbol id="51"><text x="115.23" y="1.67" class="f">RAM</text><text x="119.238" y="1.67" class="f">d</text></symbol><symbol id="52"><text y="1.67" class="f">elta:</text><text x="6.012" y="1.67" class="f">55802KB</text></symbol><symbol id="53"><text x="13.026" y="1.67" class="f">#</text><text x="15.03" y="1.67" class="f">Spectral</text><text x="24.048" y="1.67" class="f">topology</text><text x="33.066" y="1.67" class="f">of</text><text x="36.072" y="1.67" class="f">an</text><text x="39.078" y="1.67" class="f">entire</text><text x="46.092" y="1.67" class="f">library</text><text x="54.108" y="1.67" class="f">in</text><text x="57.114" y="1.67" class="f">one</text><text x="61.122" y="1.67" class="f">V8</text><text x="64.128" y="1.67" class="f">event-loop</text><text x="75.15" y="1.67" class="f">tick.</text></symbol><symbol id="a"><path fill="transparent" d="M0 0h120v39H0z"/></symbol><symbol id="b"><path fill="#6f7683" d="M0 0h1.102v2.171H0z"/></symbol></defs><path class="a" d="M0 0h120v82.498H0z"/><g style="animation-duration:10.21s;animation-iteration-count:infinite;animation-name:m;animation-timing-function:steps(1,end)"><svg width="4920"><svg><use xlink:href="#a"/><use xlink:href="#b" x="-.004"/></svg><svg x="120"><use xlink:href="#a"/><use xlink:href="#b" x="1.996"/><use xlink:href="#1"/></svg><svg x="240"><use xlink:href="#a"/><use xlink:href="#b" x="2.996"/><text y="1.67" class="f">$</text><text x="2.004" y="1.67" class="f">n</text></svg><svg x="360"><use xlink:href="#a"/><use xlink:href="#b" x="3.996"/><text y="1.67" class="f">$</text><text x="2.004" y="1.67" class="f">np</text></svg><svg x="480"><use xlink:href="#a"/><use xlink:href="#b" x="4.996"/><use xlink:href="#2"/></svg><svg x="600"><use xlink:href="#a"/><use xlink:href="#b" x="5.996"/><use xlink:href="#2"/></svg><svg x="720"><use xlink:href="#a"/><use xlink:href="#b" x="6.996"/><text y="1.67" class="f">$</text><text x="2.004" y="1.67" class="f">npx</text><text x="6.012" y="1.67" class="f">t</text></svg><svg x="840"><use xlink:href="#a"/><use xlink:href="#b" x="7.996"/><text y="1.67" class="f">$</text><text x="2.004" y="1.67" class="f">npx</text><text x="6.012" y="1.67" class="f">ts</text></svg><svg x="960"><use xlink:href="#a"/><use xlink:href="#b" x="8.996"/><use xlink:href="#3"/></svg><svg x="1080"><use xlink:href="#a"/><use xlink:href="#b" x="9.996"/><use xlink:href="#3"/></svg><svg x="1200"><use xlink:href="#a"/><use xlink:href="#b" x="10.996"/><text y="1.67" class="f">$</text><text x="2.004" y="1.67" class="f">npx</text><text x="6.012" y="1.67" class="f">tsx</text><text x="10.02" y="1.67" class="f">s</text></svg><svg x="1320"><use xlink:href="#a"/><use xlink:href="#b" x="11.996"/><text y="1.67" class="f">$</text><text x="2.004" y="1.67" class="f">npx</text><text x="6.012" y="1.67" class="f">tsx</text><text x="10.02" y="1.67" class="f">sc</text></svg><svg x="1440"><use xlink:href="#a"/><use xlink:href="#b" x="12.996"/><text y="1.67" class="f">$</text><text x="2.004" y="1.67" class="f">npx</text><text x="6.012" y="1.67" class="f">tsx</text><text x="10.02" y="1.67" class="f">scr</text></svg><svg x="1560"><use xlink:href="#a"/><use xlink:href="#b" x="13.996"/><text y="1.67" class="f">$</text><text x="2.004" y="1.67" class="f">npx</text><text x="6.012" y="1.67" class="f">tsx</text><text x="10.02" y="1.67" class="f">scri</text></svg><svg x="1680"><use xlink:href="#a"/><use xlink:href="#b" x="14.996"/><text y="1.67" class="f">$</text><text x="2.004" y="1.67" class="f">npx</text><text x="6.012" y="1.67" class="f">tsx</text><text x="10.02" y="1.67" class="f">scrip</text></svg><svg x="1800"><use xlink:href="#a"/><use xlink:href="#b" x="15.996"/><text y="1.67" class="f">$</text><text x="2.004" y="1.67" class="f">npx</text><text x="6.012" y="1.67" class="f">tsx</text><text x="10.02" y="1.67" class="f">script</text></svg><svg x="1920"><use xlink:href="#a"/><use xlink:href="#b" x="16.996"/><text y="1.67" class="f">$</text><text x="2.004" y="1.67" class="f">npx</text><text x="6.012" y="1.67" class="f">tsx</text><text x="10.02" y="1.67" class="f">scripts</text></svg><svg x="2040"><use xlink:href="#a"/><use xlink:href="#b" x="17.996"/><text y="1.67" class="f">$</text><text x="2.004" y="1.67" class="f">npx</text><text x="6.012" y="1.67" class="f">tsx</text><text x="10.02" y="1.67" class="f">scripts/</text></svg><svg x="2160"><use xlink:href="#a"/><use xlink:href="#b" x="18.996"/><text y="1.67" class="f">$</text><text x="2.004" y="1.67" class="f">npx</text><text x="6.012" y="1.67" class="f">tsx</text><text x="10.02" y="1.67" class="f">scripts/d</text></svg><svg x="2280"><use xlink:href="#a"/><use xlink:href="#b" x="19.996"/><text y="1.67" class="f">$</text><text x="2.004" y="1.67" class="f">npx</text><text x="6.012" y="1.67" class="f">tsx</text><text x="10.02" y="1.67" class="f">scripts/de</text></svg><svg x="2400"><use xlink:href="#a"/><use xlink:href="#b" x="20.996"/><text y="1.67" class="f">$</text><text x="2.004" y="1.67" class="f">npx</text><text x="6.012" y="1.67" class="f">tsx</text><text x="10.02" y="1.67" class="f">scripts/dem</text></svg><svg x="2520"><use xlink:href="#a"/><use xlink:href="#b" x="21.996"/><text y="1.67" class="f">$</text><text x="2.004" y="1.67" class="f">npx</text><text x="6.012" y="1.67" class="f">tsx</text><text x="10.02" y="1.67" class="f">scripts/demo</text></svg><svg x="2640"><use xlink:href="#a"/><use xlink:href="#b" x="22.996"/><text y="1.67" class="f">$</text><text x="2.004" y="1.67" class="f">npx</text><text x="6.012" y="1.67" class="f">tsx</text><text x="10.02" y="1.67" class="f">scripts/demo-</text></svg><svg x="2760"><use xlink:href="#a"/><use xlink:href="#b" x="23.996"/><text y="1.67" class="f">$</text><text x="2.004" y="1.67" class="f">npx</text><text x="6.012" y="1.67" class="f">tsx</text><text x="10.02" y="1.67" class="f">scripts/demo-o</text></svg><svg x="2880"><use xlink:href="#a"/><use xlink:href="#b" x="24.996"/><text y="1.67" class="f">$</text><text x="2.004" y="1.67" class="f">npx</text><text x="6.012" y="1.67" class="f">tsx</text><text x="10.02" y="1.67" class="f">scripts/demo-ou</text></svg><svg x="3000"><use xlink:href="#a"/><use xlink:href="#b" x="25.996"/><text y="1.67" class="f">$</text><text x="2.004" y="1.67" class="f">npx</text><text x="6.012" y="1.67" class="f">tsx</text><text x="10.02" y="1.67" class="f">scripts/demo-out</text></svg><svg x="3120"><use xlink:href="#a"/><use xlink:href="#b" x="26.996"/><text y="1.67" class="f">$</text><text x="2.004" y="1.67" class="f">npx</text><text x="6.012" y="1.67" class="f">tsx</text><text x="10.02" y="1.67" class="f">scripts/demo-outl</text></svg><svg x="3240"><use xlink:href="#a"/><use xlink:href="#b" x="27.996"/><text y="1.67" class="f">$</text><text x="2.004" y="1.67" class="f">npx</text><text x="6.012" y="1.67" class="f">tsx</text><text x="10.02" y="1.67" class="f">scripts/demo-outli</text></svg><svg x="3360"><use xlink:href="#a"/><use xlink:href="#b" x="28.996"/><text y="1.67" class="f">$</text><text x="2.004" y="1.67" class="f">npx</text><text x="6.012" y="1.67" class="f">tsx</text><text x="10.02" y="1.67" class="f">scripts/demo-outlin</text></svg><svg x="3480"><use xlink:href="#a"/><use xlink:href="#b" x="29.996"/><text y="1.67" class="f">$</text><text x="2.004" y="1.67" class="f">npx</text><text x="6.012" y="1.67" class="f">tsx</text><text x="10.02" y="1.67" class="f">scripts/demo-outline</text></svg><svg x="3600"><use xlink:href="#a"/><use xlink:href="#b" x="30.996"/><text y="1.67" class="f">$</text><text x="2.004" y="1.67" class="f">npx</text><text x="6.012" y="1.67" class="f">tsx</text><text x="10.02" y="1.67" class="f">scripts/demo-outline.</text></svg><svg x="3720"><use xlink:href="#a"/><use xlink:href="#b" x="31.996"/><text y="1.67" class="f">$</text><text x="2.004" y="1.67" class="f">npx</text><text x="6.012" y="1.67" class="f">tsx</text><text x="10.02" y="1.67" class="f">scripts/demo-outline.t</text></svg><svg x="3840"><use xlink:href="#a"/><use xlink:href="#b" x="32.996"/><use xlink:href="#4"/></svg><svg x="3960"><use xlink:href="#a"/><use xlink:href="#b" x="-.004" y="2.146"/><use xlink:href="#4"/></svg><svg x="4080"><use xlink:href="#a"/><use xlink:href="#b" x="116.996" y="10.83"/><use xlink:href="#4"/><text y="6.012" class="f">#</text><text x="2.004" y="6.012" class="f">Target:</text><text x="10.02" y="6.012" class="g">colinhacks/zod</text><text x="25.05" y="6.012" class="f">:</text><text x="27.054" y="6.012" class="f">packages/zod/src/v4/core/parse.ts</text><text x="60.12" y="8.183" class="g">$</text><text x="62.124" y="8.183" class="g">nreki_navigate</text><text x="77.154" y="8.183" class="g">action:&quot;outline&quot;</text><text x="94.188" y="8.183" class="g">path:&quot;v4/core/parse.ts&quot;</text></svg><svg x="4200"><use xlink:href="#a"/><use xlink:href="#b" x="27.996" y="82.473"/><text x="117.234" y="1.67" class="f">##</text><text y="3.841" class="f">Outline:</text><text x="9.018" y="3.841" class="f">v4/core/parse.ts</text><text x="25.05" y="6.012" class="f">25</text><text x="28.056" y="6.012" class="f">symbol(s)</text><text x="37.074" y="10.354" class="f">-</text><text x="39.078" y="10.354" class="f">**function**</text><text x="52.104" y="10.354" class="f">`_parse`</text><text x="61.122" y="10.354" class="f">[named]</text><text x="69.138" y="10.354" class="f">[MED</text><text x="74.148" y="10.354" class="f">—</text><text x="76.152" y="10.354" class="f">biz</text><text x="80.16" y="10.354" class="f">logic]</text><text x="87.174" y="10.354" class="f">-</text><text x="89.178" y="10.354" class="f">L16-L28</text><text x="98.196" y="12.525" class="f">`export</text><text x="106.212" y="12.525" class="f">const</text><text x="112.224" y="12.525" class="f">_parse:</text><text y="14.696" class="f">(_Err:</text><text x="7.014" y="14.696" class="f">$ZodErrorClass)</text><text x="23.046" y="14.696" class="f">=&gt;</text><text x="26.052" y="14.696" class="f">$Parse</text><text x="33.066" y="14.696" class="f">=</text><text x="35.07" y="14.696" class="f">(_Err)</text><text x="42.084" y="14.696" class="f">=&gt;</text><text x="45.09" y="14.696" class="f">(schema,</text><text x="54.108" y="14.696" class="f">value,</text><text x="61.122" y="14.696" class="f">_ctx,</text><text x="67.134" y="14.696" class="f">_params)</text><text x="76.152" y="14.696" class="f">=&gt;</text><text x="79.158" y="14.696" class="f">{`</text><text x="81.162" y="16.867" class="f">-</text><text x="83.166" y="16.867" class="f">**function**</text><text x="96.192" y="16.867" class="f">`_parseAsync`</text><text x="110.22" y="16.867" class="f">[named]</text><text x="118.236" y="16.867" class="f">[M</text><text y="19.038" class="f">ED</text><text x="3.006" y="19.038" class="f">—</text><text x="5.01" y="19.038" class="f">biz</text><text x="9.018" y="19.038" class="f">logic]</text><text x="16.032" y="19.038" class="f">-</text><text x="18.036" y="19.038" class="f">L39-L49</text><text x="27.054" y="21.209" class="f">`export</text><text x="35.07" y="21.209" class="f">const</text><text x="41.082" y="21.209" class="f">_parseAsync:</text><text x="54.108" y="21.209" class="f">(_Err:</text><text x="61.122" y="21.209" class="f">$ZodErrorClass)</text><text x="77.154" y="21.209" class="f">=&gt;</text><text x="80.16" y="21.209" class="f">$ParseAsync</text><text x="92.184" y="21.209" class="f">=</text><text x="94.188" y="21.209" class="f">(_Err)</text><text x="101.202" y="21.209" class="f">=&gt;</text><text x="104.208" y="21.209" class="f">async</text><text x="110.22" y="21.209" class="f">(schema,</text><text x="119.238" y="21.209" class="f">v</text><text y="23.38" class="f">alue,</text><text x="6.012" y="23.38" class="f">_ctx,</text><text x="12.024" y="23.38" class="f">params)</text><text x="20.04" y="23.38" class="f">=&gt;</text><text x="23.046" y="23.38" class="f">{`</text><text x="25.05" y="25.551" class="f">-</text><text x="27.054" y="25.551" class="f">**function**</text><text x="40.08" y="25.551" class="f">`_safeParse`</text><text x="53.106" y="25.551" class="f">[named]</text><text x="61.122" y="25.551" class="i">[HIGH</text><text x="67.134" y="25.551" class="i">—</text><text x="69.138" y="25.551" class="i">biz</text><text x="73.146" y="25.551" class="i">logic,</text><text x="80.16" y="25.551" class="i">type</text><text x="85.17" y="25.551" class="i">gap]</text><text x="90.18" y="25.551" class="h">⚠️</text><text x="93.186" y="25.551" class="h">[any</text><text x="98.196" y="25.551" class="h">escape]</text><text x="106.212" y="25.551" class="f">-</text><text x="108.216" y="25.551" class="f">L59-L72</text><use xlink:href="#5" y="26.052"/><text y="29.893" class="f">port</text><text x="5.01" y="29.893" class="f">const</text><text x="11.022" y="29.893" class="f">_safeParse:</text><text x="23.046" y="29.893" class="f">(_Err:</text><text x="30.06" y="29.893" class="f">$ZodErrorClass)</text><text x="46.092" y="29.893" class="f">=&gt;</text><text x="49.098" y="29.893" class="f">$SafeParse</text><text x="60.12" y="29.893" class="f">=</text><text x="62.124" y="29.893" class="f">(_Err)</text><text x="69.138" y="29.893" class="f">=&gt;</text><text x="72.144" y="29.893" class="f">(schema,</text><text x="81.162" y="29.893" class="f">value,</text><text x="88.176" y="29.893" class="f">_ctx)</text><text x="94.188" y="29.893" class="f">=&gt;</text><text x="97.194" y="29.893" class="f">{`</text><text x="99.198" y="32.064" class="f">-</text><text x="101.202" y="32.064" class="f">**function**</text><text x="114.228" y="32.064" class="f">`_safe</text><text y="34.235" class="f">ParseAsync`</text><text x="12.024" y="34.235" class="f">[named]</text><text x="20.04" y="34.235" class="i">[HIGH</text><text x="26.052" y="34.235" class="i">—</text><text x="28.056" y="34.235" class="i">biz</text><text x="32.064" y="34.235" class="i">logic,</text><text x="39.078" y="34.235" class="i">type</text><text x="44.088" y="34.235" class="i">gap]</text><text x="49.098" y="34.235" class="h">⚠️</text><text x="52.104" y="34.235" class="h">[any</text><text x="57.114" y="34.235" class="h">escape]</text><text x="65.13" y="34.235" class="f">-</text><text x="67.134" y="34.235" class="f">L81-L92</text><text x="76.152" y="36.406" class="f">`export</text><text x="84.168" y="36.406" class="f">const</text><text x="90.18" y="36.406" class="f">_safeParseAsync:</text><text x="107.214" y="36.406" class="f">(_Err:</text><text x="114.228" y="36.406" class="f">$ZodEr</text><text y="38.577" class="f">rorClass)</text><text x="10.02" y="38.577" class="f">=&gt;</text><text x="13.026" y="38.577" class="f">$SafeParseAsync</text><text x="29.058" y="38.577" class="f">=</text><text x="31.062" y="38.577" class="f">(_Err)</text><text x="38.076" y="38.577" class="f">=&gt;</text><text x="41.082" y="38.577" class="f">async</text><text x="47.094" y="38.577" class="f">(schema,</text><text x="56.112" y="38.577" class="f">value,</text><text x="63.126" y="38.577" class="f">_ctx)</text><text x="69.138" y="38.577" class="f">=&gt;</text><text x="72.144" y="38.577" class="f">{`</text><text x="74.148" y="40.748" class="f">-</text><text x="76.152" y="40.748" class="f">**function**</text><text x="89.178" y="40.748" class="f">`_encode`</text><text x="99.198" y="40.748" class="f">[named]</text><text x="107.214" y="40.748" class="f">[LOW]</text><text x="113.226" y="40.748" class="h">⚠️</text><text x="116.232" y="40.748" class="h">[any</text><text x="1.002" y="42.919" class="h">escape]</text><text x="9.018" y="42.919" class="f">-</text><text x="11.022" y="42.919" class="f">L103-L106</text><text x="22.044" y="45.09" class="f">`export</text><text x="30.06" y="45.09" class="f">const</text><text x="36.072" y="45.09" class="f">_encode:</text><text x="45.09" y="45.09" class="f">(_Err:</text><text x="52.104" y="45.09" class="f">$ZodErrorClass)</text><text x="68.136" y="45.09" class="f">=&gt;</text><text x="71.142" y="45.09" class="f">$Encode</text><text x="79.158" y="45.09" class="f">=</text><text x="81.162" y="45.09" class="f">(_Err)</text><text x="88.176" y="45.09" class="f">=&gt;</text><text x="91.182" y="45.09" class="f">(schema,</text><text x="100.2" y="45.09" class="f">value,</text><text x="107.214" y="45.09" class="f">_ctx)</text><text x="113.226" y="45.09" class="f">=&gt;</text><text x="116.232" y="45.09" class="f">{`</text><text x="118.236" y="47.261" class="f">-</text><text y="49.432" class="f">**function**</text><text x="13.026" y="49.432" class="f">`_encodeAsync`</text><text x="28.056" y="49.432" class="f">[named]</text><text x="36.072" y="49.432" class="f">[MED</text><text x="41.082" y="49.432" class="f">—</text><text x="43.086" y="49.432" class="f">biz</text><text x="47.094" y="49.432" class="f">logic,</text><text x="54.108" y="49.432" class="f">type</text><text x="59.118" y="49.432" class="f">gap]</text><text x="64.128" y="49.432" class="h">⚠️</text><text x="67.134" y="49.432" class="h">[any</text><text x="72.144" y="49.432" class="h">escape]</text><text x="80.16" y="49.432" class="f">-</text><text x="82.164" y="49.432" class="f">L128-L131</text><text x="93.186" y="51.603" class="f">`export</text><text x="101.202" y="51.603" class="f">const</text><text x="107.214" y="51.603" class="f">_encodeAsync:</text><text x="1.002" y="53.774" class="f">(_Err:</text><text x="8.016" y="53.774" class="f">$ZodErrorClass)</text><text x="24.048" y="53.774" class="f">=&gt;</text><text x="27.054" y="53.774" class="f">$EncodeAsync</text><text x="40.08" y="53.774" class="f">=</text><text x="42.084" y="53.774" class="f">(_Err)</text><text x="49.098" y="53.774" class="f">=&gt;</text><text x="52.104" y="53.774" class="f">async</text><text x="58.116" y="53.774" class="f">(schema,</text><text x="67.134" y="53.774" class="f">value,</text><text x="74.148" y="53.774" class="f">_ctx)</text><text x="80.16" y="53.774" class="f">=&gt;</text><text x="83.166" y="53.774" class="f">{`</text><text x="85.17" y="55.945" class="f">-</text><text x="87.174" y="55.945" class="f">**function**</text><text x="100.2" y="55.945" class="f">`_safeEncode`</text><text x="114.228" y="55.945" class="f">[named</text><text y="58.116" class="f">]</text><text x="2.004" y="58.116" class="f">[LOW]</text><text x="8.016" y="58.116" class="h">⚠️</text><text x="11.022" y="58.116" class="h">[any</text><text x="16.032" y="58.116" class="h">escape]</text><text x="24.048" y="58.116" class="f">-</text><text x="26.052" y="58.116" class="f">L153-L156</text><text x="37.074" y="60.287" class="f">`export</text><text x="45.09" y="60.287" class="f">const</text><text x="51.102" y="60.287" class="f">_safeEncode:</text><text x="64.128" y="60.287" class="f">(_Err:</text><text x="71.142" y="60.287" class="f">$ZodErrorClass)</text><text x="87.174" y="60.287" class="f">=&gt;</text><text x="90.18" y="60.287" class="f">$SafeEncode</text><text x="102.204" y="60.287" class="f">=</text><text x="104.208" y="60.287" class="f">(_Err)</text><text x="111.222" y="60.287" class="f">=&gt;</text><text x="114.228" y="60.287" class="f">(schem</text><text y="62.458" class="f">a,</text><text x="3.006" y="62.458" class="f">value,</text><text x="10.02" y="62.458" class="f">_ctx)</text><text x="16.032" y="62.458" class="f">=&gt;</text><text x="19.038" y="62.458" class="f">{`</text><text x="21.042" y="64.629" class="f">-</text><text x="23.046" y="64.629" class="f">**function**</text><text x="36.072" y="64.629" class="f">`_safeEncodeAsync`</text><text x="55.11" y="64.629" class="f">[named]</text><text x="63.126" y="64.629" class="f">[MED</text><text x="68.136" y="64.629" class="f">—</text><text x="70.14" y="64.629" class="f">biz</text><text x="74.148" y="64.629" class="f">logic,</text><text x="81.162" y="64.629" class="f">type</text><text x="86.172" y="64.629" class="f">gap]</text><text x="91.182" y="64.629" class="h">⚠️</text><text x="94.188" y="64.629" class="h">[any</text><text x="99.198" y="64.629" class="h">escape]</text><text x="107.214" y="64.629" class="f">-</text><text x="109.218" y="64.629" class="f">L178-L181</text><use xlink:href="#6" y="65.13"/><use xlink:href="#7" y="67.301"/><use xlink:href="#8" y="69.472"/><use xlink:href="#9" y="73.814"/><use xlink:href="#10" y="75.985"/><use xlink:href="#11" y="78.156"/></svg><svg x="4320"><use xlink:href="#a"/><use xlink:href="#b" x="119.996" y="82.473"/><use xlink:href="#6"/><use xlink:href="#7" y="2.171"/><use xlink:href="#8" y="4.342"/><use xlink:href="#9" y="8.684"/><use xlink:href="#10" y="10.855"/><use xlink:href="#11" y="13.026"/><use xlink:href="#12" y="17.368"/><use xlink:href="#13" y="19.539"/><use xlink:href="#14" y="23.881"/><use xlink:href="#15" y="26.052"/><use xlink:href="#16" y="28.223"/><use xlink:href="#17" y="30.394"/><use xlink:href="#18" y="32.565"/><use xlink:href="#19" y="34.736"/><use xlink:href="#20" y="36.907"/><use xlink:href="#21" y="39.078"/><use xlink:href="#22" y="41.249"/><use xlink:href="#23" y="43.42"/><use xlink:href="#24" y="45.591"/><use xlink:href="#25" y="47.762"/><use xlink:href="#5" y="49.933"/><use xlink:href="#26" y="52.104"/><use xlink:href="#27" y="54.275"/><use xlink:href="#28" y="56.446"/><use xlink:href="#29" y="58.617"/><use xlink:href="#30" y="60.788"/><use xlink:href="#31" y="62.959"/><use xlink:href="#32" y="65.13"/><use xlink:href="#33" y="67.301"/><use xlink:href="#34" y="69.472"/><use xlink:href="#35" y="71.643"/><use xlink:href="#36" y="73.814"/><use xlink:href="#37" y="75.985"/><use xlink:href="#38" y="78.156"/><use xlink:href="#39" y="80.327"/></svg><svg x="4440"><use xlink:href="#a"/><use xlink:href="#b" x="106.996" y="82.473"/><use xlink:href="#10"/><use xlink:href="#11" y="2.171"/><use xlink:href="#12" y="6.513"/><use xlink:href="#13" y="8.684"/><use xlink:href="#14" y="13.026"/><use xlink:href="#15" y="15.197"/><use xlink:href="#16" y="17.368"/><use xlink:href="#17" y="19.539"/><use xlink:href="#18" y="21.71"/><use xlink:href="#19" y="23.881"/><use xlink:href="#20" y="26.052"/><use xlink:href="#21" y="28.223"/><use xlink:href="#22" y="30.394"/><use xlink:href="#23" y="32.565"/><use xlink:href="#24" y="34.736"/><use xlink:href="#25" y="36.907"/><use xlink:href="#5" y="39.078"/><use xlink:href="#26" y="41.249"/><use xlink:href="#27" y="43.42"/><use xlink:href="#28" y="45.591"/><use xlink:href="#29" y="47.762"/><use xlink:href="#30" y="49.933"/><use xlink:href="#31" y="52.104"/><use xlink:href="#32" y="54.275"/><use xlink:href="#33" y="56.446"/><use xlink:href="#34" y="58.617"/><use xlink:href="#35" y="60.788"/><use xlink:href="#36" y="62.959"/><use xlink:href="#37" y="65.13"/><use xlink:href="#38" y="67.301"/><use xlink:href="#39" y="69.472"/><use xlink:href="#40" y="75.985"/><use xlink:href="#41" y="78.156"/></svg><svg x="4560"><use xlink:href="#a"/><use xlink:href="#b" x="85.996" y="82.473"/><use xlink:href="#14"/><use xlink:href="#15" y="2.171"/><use xlink:href="#16" y="4.342"/><use xlink:href="#17" y="6.513"/><use xlink:href="#18" y="8.684"/><use xlink:href="#19" y="10.855"/><use xlink:href="#20" y="13.026"/><use xlink:href="#21" y="15.197"/><use xlink:href="#22" y="17.368"/><use xlink:href="#23" y="19.539"/><use xlink:href="#24" y="21.71"/><use xlink:href="#25" y="23.881"/><use xlink:href="#5" y="26.052"/><use xlink:href="#26" y="28.223"/><use xlink:href="#27" y="30.394"/><use xlink:href="#28" y="32.565"/><use xlink:href="#29" y="34.736"/><use xlink:href="#30" y="36.907"/><use xlink:href="#31" y="39.078"/><use xlink:href="#32" y="41.249"/><use xlink:href="#33" y="43.42"/><use xlink:href="#34" y="45.591"/><use xlink:href="#35" y="47.762"/><use xlink:href="#36" y="49.933"/><use xlink:href="#37" y="52.104"/><use xlink:href="#38" y="54.275"/><use xlink:href="#39" y="56.446"/><use xlink:href="#40" y="62.959"/><use xlink:href="#41" y="65.13"/><use xlink:href="#42" y="69.472"/><use xlink:href="#43" y="71.643"/><use xlink:href="#44" y="75.985"/><use xlink:href="#45" y="78.156"/></svg><svg x="4680"><use xlink:href="#a"/><use xlink:href="#b" x="79.996" y="82.473"/><use xlink:href="#23"/><use xlink:href="#24" y="2.171"/><use xlink:href="#25" y="4.342"/><use xlink:href="#5" y="6.513"/><use xlink:href="#26" y="8.684"/><use xlink:href="#27" y="10.855"/><use xlink:href="#28" y="13.026"/><use xlink:href="#29" y="15.197"/><use xlink:href="#30" y="17.368"/><use xlink:href="#31" y="19.539"/><use xlink:href="#32" y="21.71"/><use xlink:href="#33" y="23.881"/><use xlink:href="#34" y="26.052"/><use xlink:href="#35" y="28.223"/><use xlink:href="#36" y="30.394"/><use xlink:href="#37" y="32.565"/><use xlink:href="#38" y="34.736"/><use xlink:href="#39" y="36.907"/><use xlink:href="#40" y="43.42"/><use xlink:href="#41" y="45.591"/><use xlink:href="#42" y="49.933"/><use xlink:href="#43" y="52.104"/><use xlink:href="#44" y="56.446"/><use xlink:href="#45" y="58.617"/><use xlink:href="#46" y="62.959"/><use xlink:href="#47" y="65.13"/><use xlink:href="#48" y="67.301"/><use xlink:href="#49" y="69.472"/><use xlink:href="#50" y="71.643"/><use xlink:href="#51" y="73.814"/><use xlink:href="#52" y="75.985"/><use xlink:href="#53" y="80.327"/></svg><svg x="4800"><use xlink:href="#a"/><use xlink:href="#b" x="1.996" y="82.473"/><use xlink:href="#24"/><use xlink:href="#25" y="2.171"/><use xlink:href="#5" y="4.342"/><use xlink:href="#26" y="6.513"/><use xlink:href="#27" y="8.684"/><use xlink:href="#28" y="10.855"/><use xlink:href="#29" y="13.026"/><use xlink:href="#30" y="15.197"/><use xlink:href="#31" y="17.368"/><use xlink:href="#32" y="19.539"/><use xlink:href="#33" y="21.71"/><use xlink:href="#34" y="23.881"/><use xlink:href="#35" y="26.052"/><use xlink:href="#36" y="28.223"/><use xlink:href="#37" y="30.394"/><use xlink:href="#38" y="32.565"/><use xlink:href="#39" y="34.736"/><use xlink:href="#40" y="41.249"/><use xlink:href="#41" y="43.42"/><use xlink:href="#42" y="47.762"/><use xlink:href="#43" y="49.933"/><use xlink:href="#44" y="54.275"/><use xlink:href="#45" y="56.446"/><use xlink:href="#46" y="60.788"/><use xlink:href="#47" y="62.959"/><use xlink:href="#48" y="65.13"/><use xlink:href="#49" y="67.301"/><use xlink:href="#50" y="69.472"/><use xlink:href="#51" y="71.643"/><use xlink:href="#52" y="73.814"/><use xlink:href="#53" y="78.156"/><use xlink:href="#1" y="82.498"/></svg></svg></g></g></svg></svg>